<svg width="100%" height="100%" viewBox="0 0 1000 1000" version="1.1" xmlns="http://www.w3.org/2000/svg">
    <defs>
        <linearGradient id="gradient" gradientUnits="userSpaceOnUse" x1="-9.92%" y1="30.53%" x2="109.92%" y2="69.47%">
            <stop offset="0" stop-color="#faad5e"/>
            <stop offset="1" stop-color="#bd44c5"/>
        </linearGradient>
    </defs>
    <style>
        .theme-fill {
            fill: #fff;
        }

        @media (prefers-color-scheme: dark) {
            .theme-fill {
                fill: #222;
            }
        }
    </style>

    <path
        id="head-fill"
        class="theme-fill"
        d="M279.2,202.87C278.157,190.086 302.79,181.517 335.759,223.979C319.216,193.593 311.275,143.42 368.673,213.201C358.369,186.35 346.654,144.359 392.208,123.567C415.639,112.874 404.698,126.966 412.296,120.799C440.363,98.017 520.818,33.745 464.385,162.354C466.358,142.791 554.092,60.121 524.953,145.683C531.627,141.136 556.626,123.603 563.349,120.807C587.629,110.712 587.785,124.092 573.63,151.606C584.289,146.553 611.562,142.942 611.382,160.455C628.52,150.172 659.426,151.845 645.81,173.145C657.756,170.761 678.714,177.202 665.093,193.637C677.072,190.452 671.559,201.23 692.035,192.861C705.872,178.129 719.574,215.952 710.345,224.027C722.897,225.369 749.271,225.207 756.319,224.683C780.092,222.916 788.446,237.934 769.596,266.925C796.987,269.836 800.179,286.921 791.398,304.283C810.548,305.372 836.661,314.024 812.601,340.229C821.999,340.443 851.348,345.684 826.462,372.497C834.059,370.743 844.461,367.185 848.734,367.815C886.658,365.568 870.513,374.209 847.072,406.901C870.615,411.526 892.64,424.82 859.546,453.822C884.9,476.728 928.29,499.535 869.072,512.665C862.427,514.139 932.621,586.243 878.193,573.429C896.76,590.431 928.206,650.825 874.577,632.085C880.729,642.839 912.745,688.351 865.424,677.044C889.864,693.985 913.897,710.71 856.007,700.519C868.329,713.469 872.033,747.543 843.818,732.69C886.457,780.028 857.667,811.007 792.293,773.306C824.686,808.713 819.932,848.204 762.385,809.359C788.156,840.171 795.664,887.826 721.687,835.797C723.664,837.229 730.525,863.264 732.398,863.9C747.144,868.901 715.452,876.375 696.214,860.937C717.004,876.269 695.649,915.725 644.323,858.514C651.901,875.863 663.502,941.572 593.401,862.149C611.224,889.832 607.158,939.303 554.356,879.514C538.33,905.448 492.961,961.911 478.665,882.226C465.391,907.901 380.978,961.06 418.74,879.678C399.267,895.689 368.101,944.535 359.662,847.971C326.93,880.424 318.293,916.153 307.868,848.372C295.631,876.541 272.869,907.674 272.719,833.861C247.217,879.674 214.856,886.403 242.879,813.635C226.328,822.049 194.91,829.147 186.946,818.743C180.17,809.893 195.021,798.208 197.39,753.281C182.999,761.707 146.971,795.803 136.273,769.639C127.644,748.533 131.568,714.136 142.836,694.129C87.631,726.382 93.814,656.249 113.193,628.945C94.687,622.941 108.691,593.487 123.921,586.046C50.037,602.105 112.489,544.237 132.282,522.996C100.532,530.843 78.103,512.974 137.415,476.241C101.862,473.61 124.082,453.057 138.916,437.277C116.453,427.124 111.31,406.626 138.105,402.941C147.769,401.612 183.653,400.034 173.352,392.517C150.722,376.004 168.263,367.872 202.178,378.209C168.309,356.464 201.321,350.175 215.45,348.057C159.134,329.847 165.977,295.12 227.125,302.984C165.997,266.731 195.904,217.228 271.752,270.617C229.424,229.917 236.161,184.268 298.697,243.141C298.169,237.113 279.765,209.801 279.2,202.87Z"
        fill="#fff"
        opacity="0.8"
    />
    <path
        id="left-ear-fill"
        class="theme-fill"
        d="M282.924,222.195C255.597,205.288 226.383,210.845 255.515,255.868C199.398,233.623 173.813,254.466 207.648,299.713C176.049,302.951 167.251,326.481 206.651,348.808C169.834,361.327 195.101,369.453 197.241,378.373C168.415,366.025 153.006,372.709 168.688,399.363C118.731,390.857 130.585,370.443 127.663,329.432C124.781,288.98 133.788,201.389 140.678,177.159C146.269,157.497 166.929,125.332 180.761,126.578C212.798,129.463 254.089,161.161 284.028,190.295C281.784,195.943 280.509,209.918 282.924,222.195Z"
        fill="#fff"
        opacity="0.8"
    />
    <path
        id="right-ear-fill"
        class="theme-fill"
        d="M870.373,362.199C865.963,361.549 847.151,360.026 839.31,361.836C845.183,348.589 829.139,339.152 819.438,338.931C834.189,315.193 818.527,303.587 798.761,302.464C807.825,284.543 805.791,267.883 777.52,264.878C796.976,234.955 781.391,221.182 756.853,223.006C749.579,223.547 719.658,222.003 722.033,214.578C737.351,166.701 835.09,99.512 852.022,135.314C870.711,174.834 886.078,259.343 870.373,362.199Z"
        fill="#fff"
        opacity="0.8"
    />

    <path
        id="head"
        d="M487.918,115.903C520.028,51.549 433.054,81.758 413.088,108.621C407.063,116.727 412.674,101.453 390.056,115.421C381.914,120.449 351.984,132.121 348,176C337.5,166.74 313.866,161.919 312.683,183.601C303.932,173.08 294.701,161.11 289.636,151.771C281.828,137.374 271.941,139.111 276.531,158.132C265.929,139.413 261.397,130.563 253.903,114.111C246.922,98.783 234.56,94.411 236.161,121.512C224.786,103.9 216.715,97.552 210.25,85.75C201.516,69.807 191.086,80.088 189.413,112.389C176.714,74.404 164.115,96.908 162.219,118.136C140.312,85.007 137.859,116.594 143,136C123.119,114.378 125.061,149.62 125.503,163.479C119.812,160.51 104.256,148.097 115.564,237.296C90.003,215.577 103,264.469 107,281C85.367,260.498 83.539,283.065 99.779,319.068C104.764,330.118 107.27,337.07 114,352C82.292,336.592 113.039,393.101 125,402C112.49,410.249 104.092,431.747 127.485,438.165C114.518,447.77 97.578,470.133 114.942,480.341C90.69,493.885 71.951,537.918 119.279,530.129C94.139,540.019 50.23,604.632 105.205,595.156C89.485,602.836 74.202,632.882 99,640C78.998,668.182 82.419,727.563 134,708C122.37,728.65 122.323,755.986 131.23,777.77C142.272,804.776 171.914,782.578 186.767,773.881C184.592,792.285 159.995,803.189 173.25,820.75C181.397,831.544 210.953,837.025 228.036,828.341C201.533,871.547 236.965,908.853 263.288,861.567C260.856,889.03 289.149,910.232 301.779,881.159C312.36,917.948 342.892,893.149 351.947,872.032C352.367,911.528 367.006,933.034 401.592,904.598C376.884,958.483 462.504,925.671 476.205,899.171C468.542,963.71 539.649,927.546 556.19,900.778C560.89,917.651 618.848,924.572 616.276,902.624C632.423,916.676 673.833,908.721 666.011,890.815C688.818,903.677 731.818,891.772 710.36,875.948C737.725,883.433 756.484,867.953 741.264,862.791C739.33,862.135 739.762,860.506 737.722,859.028C777.62,878.972 806.739,862.06 780.14,830.258C807.855,845.103 844.419,826.391 810.985,789.847C842.172,810.865 901.411,793.587 857.401,744.729C876.698,746.874 880.62,728.216 867.902,714.85C897.833,725.485 918.248,700.36 893.022,682.874C912.737,676.598 897.298,655.14 890.948,644.04C935.483,640.429 910.321,598.691 891.157,581.143C918.117,579.575 907.388,548.343 884,515C890.898,513.317 895.819,513.598 901.437,509.378C920.831,494.814 902.927,478.212 876.758,454.57C899.813,431.142 893.238,411.245 868.939,406.471C884.182,379.068 904.577,329.91 905.945,327.012C909.784,318.882 910.975,300.22 886.523,320.516C889.86,311.139 896.586,291.924 905.04,263.142C910.422,244.817 901.986,241.923 892.94,250.987C895.49,244.096 904.101,210.473 903.93,201.599C903.842,197.068 897.832,181.613 884.524,205.215C882.877,159.169 886.267,145.076 873.087,145.072C878.323,124.829 879.94,108.291 856.151,121.135C865.119,111.112 874.509,75.602 824.366,113.114C846.719,70.437 821.858,76.048 811.064,86.635C805.884,91.717 791.577,104.569 781.172,118.119C789.413,85.223 773.535,81.756 755.696,108.956C748.67,119.668 738.47,128.612 718.052,171.595C696.918,180.233 692.115,179.1 679.75,182.387C693.809,165.424 672.842,161.339 660.512,163.799C674.566,141.815 636.603,139.772 618.914,150.386C619.101,132.31 599.662,136.013 588.661,141.229C603.271,112.83 590.533,97.991 565.473,108.411C558.533,111.296 551.404,114.101 544.516,118.794C552.814,89.707 503.854,102.736 487.918,115.903ZM470,97C463.053,117.216 454.748,162.587 455.044,175.576C455.165,180.88 463.323,186.543 468.151,172.095C472.477,159.148 501.225,125.388 521,121C516.79,137.54 502.016,173.605 505.61,178.444C509.695,183.944 512.298,180.025 517.669,172.16C530.212,153.791 555.362,134.695 569.092,128.295C555.811,173.346 547.304,184.101 555.08,186.92C565.585,190.729 567.024,161.78 602.3,156.202C596.12,163.542 579.253,184.272 591.258,186.735C599.272,188.38 605.758,170.589 638.17,163.604C638.842,163.459 598.656,206.246 657,184C649.401,194.214 626.488,207.097 633.037,216.978C636.891,222.793 661.875,207.795 704.201,204.493C694.761,222.613 682.416,252.265 678.186,259.465C671.651,270.589 679.171,275.132 686.174,267.444C692.246,260.778 707.784,251.138 716.207,248.568C738.083,241.895 796.087,218.072 754.516,265.583C743.857,277.764 727.121,285.377 733,292.186C737.673,297.598 740.6,288.312 764.905,282.913C783.205,278.848 788.137,280.274 789.574,284.47C790.927,288.42 782.557,298.342 774.246,304.7C764.025,312.519 753.29,316.695 755.187,321.612C757.799,328.381 767.318,322.712 773.02,321.02C814.104,308.832 826.085,319.019 796.703,337.778C783.473,346.225 777.792,345.511 778.542,351.822C779.22,357.519 787.962,354.482 800.001,352.831C811.748,351.22 823.94,348.916 826.494,353.031C829.082,357.201 818.593,366.008 809.491,372.6C800.735,378.941 793.439,377.941 793.054,384.39C792.318,396.712 817.537,384.188 831.224,379.79C879.669,364.222 854.182,378.578 842.298,389.436C833.488,397.487 823.3,402.873 823.147,406.804C822.737,417.311 852.91,421.538 859.538,422.654C871.275,424.629 863.358,429.802 859.046,435.799C850.066,448.29 819.835,456.722 845.02,463.98C863.03,469.17 881.01,480.61 890,498C867.028,503.102 832.893,508.495 864.016,520.394C867.096,521.572 872.708,528.111 877.361,536.265C908.505,590.84 878.754,557.828 866.92,564.172C856.032,570.009 878.722,589.433 885.379,597.882C911.669,631.252 889.011,627.846 874.541,622.513C864.52,618.819 859.441,617.632 857.878,623.079C855.934,629.854 867.243,628.848 874.007,645.931C881.302,664.358 896.012,676.439 859.454,664.216C848.169,658.809 845.769,661.357 844.175,666.467C842.324,672.404 867.04,695.342 879.435,696.524C869.659,699.22 847.009,682.657 844.428,689.341C841.103,697.953 846.648,689.333 855,726C827.36,713.455 827.675,724.024 831.252,730.443C839.149,744.614 845.707,758.067 850.75,765.25C869.399,791.811 818.484,772.964 811.644,769.531C765.378,746.311 779.366,774.746 780.592,776.501C791.932,792.75 798.474,810.037 801.479,813.694C765.237,813.226 760.292,790.56 754.449,789.717C735.64,787.006 763.6,831.3 772,850C752.315,850.401 733.74,841.728 717.583,817.73C714.644,813.364 706.153,814.946 708.528,825.032C712.978,843.938 714.052,842.951 723.705,862.834C711.575,861.694 704.299,856.535 695.852,847.498C687.829,838.915 676.806,848.685 692,878C673.34,877.81 664.051,866.405 650.967,852.82C635.65,829.782 629.211,845.42 643,891C622.44,889.33 598.736,861.797 594.398,850.471C589.842,838.579 578.842,842.043 583.322,857.801C584.482,861.882 582.76,865.967 584.668,871.821C587.909,881.768 600.968,895.486 591.133,894.805C556.633,892.419 567.611,867.06 553.247,867.477C542.358,867.793 545.831,896.363 502.825,912.657C500.667,898.251 479.728,849.449 469.23,872.23C460.899,890.307 458.053,899.78 423.231,911.315C428.906,900.203 434.778,858.34 416.989,864.638C409.776,867.191 398.152,892.346 379,899C365.36,866.058 373.47,838.138 361.77,834.23C349.528,830.141 337.755,865.829 322.361,876.757C312.678,836.499 325.335,831.078 312.783,826.158C303.959,822.699 292.571,852.35 286.031,865.37C278.909,855.101 289.802,804.491 268.25,819.25C262.946,822.882 254.1,850.78 239,858C242.62,838.02 262.772,804.995 252.681,796.902C242.728,788.921 240.668,816.146 197,812C201.441,803.386 203.87,791.327 203.34,760.768C203.17,750.968 209.397,744.188 203.459,740.225C194.406,734.183 194.363,748.311 174.694,757.988C161.556,764.452 149.495,768.969 148.56,766.744C139.285,744.678 147.359,703.642 160.766,687.938C171.073,675.866 158.405,674.366 153.397,678.32C144.206,685.579 112.381,694.373 112,692C102.932,635.502 145.085,627.536 143.071,618.929C140.499,607.937 130.986,615.887 110.827,618.503C132.778,580.774 138.053,584.688 138.33,579.227C138.857,568.854 123.659,575.386 96.522,578.979C104.362,559.789 118.254,550.935 149.29,525.62C152.42,523.067 156.653,524.493 156.363,519.2C155.856,509.933 144.021,514.579 110,514C112.08,497.8 128.444,485.833 154.093,479.26C160.666,477.575 161.053,475.062 160.484,472.041C159.108,464.723 146.688,468.174 129,468C134.07,452.95 145.601,443.431 162.483,441.337C169.773,440.433 175.741,434.589 164.672,430.271C160.04,428.464 146.973,422.561 137.313,417.244C151.303,408.394 167.383,403.504 194.285,404.112C203.451,405.348 205.775,397.566 195.363,393.463C186.203,389.854 184.158,385.566 180.151,381.71C189.75,383.416 210.326,386.389 218.862,388.717C226.753,390.87 228.568,381.745 219.785,378.348C159.745,355.127 219.893,356.775 228.112,352.997C234.938,349.859 230.277,343.728 224.961,342.237C210.997,338.319 186.571,325.644 188.908,315.939C190.939,307.505 228.419,312.616 234.99,314.101C243.952,316.125 245.038,309.277 238.368,304.702C231.014,299.659 158.614,239.832 246.363,263.088C267.853,268.784 271.688,286.069 279.095,279.735C287.073,272.912 271.085,265.814 268.097,260.444C228.569,189.433 284.626,237.428 294.25,247.75C297.375,251.102 301.958,256.267 306.291,251.747C309.943,247.939 300.34,236.233 291,205C304.395,206.811 319.867,214.983 332.42,231.062C333.976,233.055 338.967,239.03 342.176,235.431C346.919,230.113 344.201,230.51 332.997,189.143C357.727,203.865 364.143,224.319 371.252,223.561C380.725,222.551 373.327,210.663 370.285,201.027C360.946,171.435 374.074,144.453 401.683,129.348C397.053,138.838 392.634,166.242 401.33,164.887C411.18,163.353 414.577,113.657 470,97M271,207C250.919,200.162 225.657,213.034 234.545,239.294C189.204,225.557 166.369,262.246 195.438,291.441C163.839,294.678 158.159,333.897 191.42,347.881C183.683,351.253 177.687,358.56 179.827,367.48C151.001,355.131 145.387,375.549 159.563,392.472C132.4,375.386 138.791,367.737 135.869,326.726C132.987,286.274 145.453,205.463 152.342,181.233C157.933,161.571 168.168,133.754 182,135C214.037,137.885 242.25,163.977 272.19,193.112C269.946,198.76 270.455,200.778 271,207M862.193,357.099C857.783,356.449 854.716,355.13 846.875,356.94C852.748,343.693 839.096,335.277 829.395,335.055C844.146,311.317 828.124,298.909 808.358,297.785C817.422,279.864 814.152,262.401 785.881,259.396C805.337,229.474 789.183,213.802 764.645,215.626C757.371,216.167 744.645,216.965 731.689,215.58C732.483,213.45 732.757,212.383 736.404,205.492C756.161,168.162 830.73,110.779 847.662,146.582C866.351,186.101 875.464,264.697 862.193,357.099Z"
        fill="url(#gradient)"
    />

    <path
        id="left-eye-reflection"
        class="theme-fill"
        d="M334.132,459.208C224.821,452.029 213.072,620.621 323.892,641.36C368.947,649.791 421.619,574.177 392.173,497.06C381.963,470.321 365.865,461.291 334.132,459.208Z"
        fill="#fff"
    />
    <path
        id="left-eyeball"
        d="M303.347,477.052C317.293,478.731 322.864,496.463 312.763,511.686C303.001,526.398 285.951,533.398 273.625,527.364C248.999,515.308 275.274,473.672 303.347,477.052ZM334.344,446.932C225.033,439.754 185.593,633.6 321.139,648.161C378.601,654.334 442.108,583.317 404.081,499.681C392.234,473.626 366.077,449.016 334.344,446.932Z"
        fill="url(#gradient)"
    />

    <path
        id="right-eye-reflection"
        class="theme-fill"
        d="M693.11,455.536C596.94,443.986 559.209,627.019 681.732,637.636C736.994,642.424 769.646,604.49 764.43,546.48C760.126,498.606 734.324,460.486 693.11,455.536Z"
        fill="#fff"
    />
    <path
        id="right-eyeball"
        d="M666.191,476.964C680.111,481.3 679.968,502.871 670.196,514.386C654.7,532.645 636.958,529.722 631.334,524.612C612.561,507.558 642.375,469.546 666.191,476.964ZM693,447C573.508,441.273 557.258,636.604 679.78,647.22C735.042,652.008 782.184,604.49 776.968,546.48C772.664,498.606 734.463,448.987 693,447Z"
        fill="url(#gradient)"
    />

    <path
        id="nose-reflection"
        class="theme-fill"
        d="M496.364,589.156C509.414,580.84 536.507,564.821 507.813,565.63C447.573,567.329 472.155,604.583 496.364,589.156Z"
        fill="#fff"
    />
    <path
        id="nose"
        d="M509.384,571.211C521.605,573.311 499.521,577.099 491.987,580.726C485.836,583.687 482.439,587.807 479.123,584.401C472.515,577.615 494.133,568.59 509.384,571.211ZM560.003,629.025C540.369,662.422 510.078,646.904 512.108,613.741C552.003,603.432 564.546,559.258 507.313,559.405C440.243,559.578 457.189,602.907 494.379,613.377C493.609,635.184 467.21,666.598 447.389,632.06C442.561,623.649 433.573,626.061 432.533,635.24C431.865,641.135 434.269,650.498 441.141,658.032C457.87,676.373 489.236,670.145 502.15,651.662C513.767,669.962 542.774,676.324 563.221,658.223C570.594,651.696 574.07,645.259 575.884,637.99C579.181,624.78 566.072,618.701 560.003,629.025Z"
        fill="url(#gradient)"
    />
</svg>
